# xmcd
#
# Track frame offsets:
#	150
#	16280
#	31462
#	53820
#	68415
#	88637
#	104280
#	130197
#	142265
#	166180
#	181407
#	196436
#	214272
#	229305
#	246682
#	261437
#	290107
#	308275
#
# Disc length: 4388
#
# Revision: 2
# Processed by: cddbd v1.5.1PL0 Copyright (c) Steve Scherf et al.
# Submitted via: audiograbber 1.81.02
# Normalized: r1:TDELIM( - )
#
DISCID=0e112212
DTITLE=Various Artist - Aligator Records 20th Anniversary Collection
DYEAR=1991
DGENRE=Blues
TTITLE0=Hound Dog Taylor - 01 - Give Me Back My Wig
TTITLE1=James Cotton - 02 - No Cuttin Loose
TTITLE2=Albert Collins with Johnny Copeland - 03 - Black Cat Bone
TTITLE3=Professor Longhair - 04 - Big Chief
TTITLE4=Koko Taylor - 05 - Thats Why I'm Cryin
TTITLE5=Tinsley Ellis - 06 - Double Eyed Whammy
TTITLE6=Lucky Peterson - 07 - I'm Free
TTITLE7=AC Reed with Stevie Ray Vaughan - 08 - These Blues Is Killing Me
TTITLE8=Little Charlie and the Nighthawks - 09 - Rain
TTITLE9=Kenny Neal - 10 - Look But Don't Touch
TTITLE10=Elvin Bishop - 11 - Fannie Mae
TTITLE11=Jimmy Johnson - 12 - Serves Me Right To Suffer
TTITLE12=The Siegel Schwall Band - 13 - Leavin'
TTITLE13=Clarence Gatemouth Brown - 14 - Born In Louisiana
TTITLE14=Charlie Musselwhite - 15 - Leaving Your Town
TTITLE15=Roy Buchanan - 16 - Drowning On Dry Land
TTITLE16=Detroit Junior - 17 - If I Hadn't Been High
TTITLE17=Big Walter Johnson - 18 - Trouble In Mind
EXTD=
EXTT0=
EXTT1=
EXTT2=
EXTT3=
EXTT4=
EXTT5=
EXTT6=
EXTT7=
EXTT8=
EXTT9=
EXTT10=
EXTT11=
EXTT12=
EXTT13=
EXTT14=
EXTT15=
EXTT16=
EXTT17=
PLAYORDER=
